<svg>
<g>
<path d="m 115.08889,167.39762 c -0.28344,-0.73863 -0.17919,-28.74681 0.14491,-38.93296 0.36564,-11.49149 0.41103,-11.18395 -1.65071,-11.18395 -9.3033,0 -14.431085,-11.15067 -11.498,-25.003119 2.0429,-9.648247 8.30084,-8.47835 7.65399,1.43088 -0.83866,12.847639 0.0458,17.228789 3.80318,18.839399 1.71231,0.73398 1.65061,1.10903 1.65066,-10.03329 5e-5,-11.101499 0.18156,-13.085669 1.45069,-15.857819 3.08664,-6.742107 9.74571,-6.116647 11.95535,1.12291 0.54834,1.79654 0.56501,3.97318 0.29304,38.264639 -0.1678,21.15742 -0.0761,21.56931 3.53521,15.8749 2.49885,-3.94028 3.48085,-19.48929 1.96417,-31.10083 -1.03597,-7.93131 -0.0614,-10.986169 3.76681,-11.807169 4.95739,-1.06317 6.13604,2.948949 6.22204,21.179919 0.0955,20.25118 -2.42972,25.31998 -14.50298,29.11101 -1.50517,0.47262 -1.44672,0.0813 -1.45116,9.71659 -0.004,8.7974 -0.004,8.7974 -6.59033,8.7974 -5.76174,0 -6.60638,-0.0524 -6.74687,-0.41851 z"/>
</g>
</svg>