<svg>
<g>
<path d="m 84.149383,206.45621 c -2.07423,-1.63159 -3.19352,-9.23792 -2.05982,-13.99791 0.19062,-0.80036 0.70697,-3.00302 1.14744,-4.89479 1.35554,-5.82191 1.61693,-5.69241 4.05086,2.00688 2.9161,9.22455 0.90149,20.06366 -3.13848,16.88582 z m -6.3783,-0.52064 c -11.91327,-1.62496 -17.221307,-3.09467 -24.738546,-6.84973 -6.125188,-3.05968 -6.776274,-3.94513 -2.363697,-3.21449 0.79071,0.13092 2.330624,0.37487 3.42203,0.54211 1.091407,0.16724 2.520157,0.41051 3.175,0.54061 3.509484,0.69722 7.294443,1.32784 9.525003,1.58697 11.13474,1.29356 14.04893,1.88647 14.31805,2.91309 0.0954,0.36381 0.42516,1.45768 0.73288,2.43084 0.30772,0.97316 0.55948,1.89589 0.55948,2.05052 0,0.32502 -2.2477,0.32505 -4.6302,8e-5 z m 14.46979,-0.26581 c 0.0601,-0.18027 1.17475,-0.72851 2.47702,-1.21832 3.26155,-1.22673 5.00533,-2 8.850057,-3.92455 3.99355,-1.99904 4.07816,-2.01714 14.2875,-3.05559 1.52797,-0.15543 3.10555,-0.34436 3.50573,-0.41986 1.04707,-0.19754 0.94682,0.49727 -0.13229,0.91692 -0.47294,0.18392 -2.70536,0.97406 -4.96094,1.75586 -2.25557,0.78181 -5.33421,1.90929 -6.84141,2.50553 -2.85652,1.13 -5.76095,1.97192 -8.23984,2.38852 -0.80036,0.13451 -2.467237,0.41905 -3.704157,0.63231 -3.8867,0.67012 -5.36472,0.78832 -5.24167,0.41918 z m -3.37774,-1.37135 c 0.36829,-2.30742 6.03534,-8.66511 7.7238,-8.66511 0.0838,0 0.4685,-0.22041 0.85476,-0.48979 0.38627,-0.26939 1.6548,-0.99957 2.818967,-1.62262 4.5718,-2.44681 5.68587,-3.062 9.26042,-5.11368 8.6853,-4.98507 12.65632,-6.44701 11.11015,-4.09022 -6.30963,9.6176 -14.76528,15.64272 -28.315127,20.17613 -3.64022,1.21791 -3.6781,1.21578 -3.45297,-0.19471 z m 0.85516,-4.08213 c -0.0987,-0.0987 -0.12463,-0.54522 -0.0575,-0.99218 0.0671,-0.44697 0.25137,-2.53908 0.40953,-4.64913 0.61274,-8.17475 0.68452,-8.53249 2.19513,-10.94072 3.19806,-5.09839 6.38451,-9.03781 13.412037,-16.58133 1.96847,-2.11301 5.05519,-5.53606 6.85937,-7.60677 4.50882,-5.1749 4.52347,-5.15094 2.14575,3.51111 -2.8229,10.28384 -5.89495,15.72331 -14.19574,25.13542 -3.917357,4.44182 -7.100077,8.21137 -8.663367,10.26069 -1.54271,2.02235 -1.75652,2.21156 -2.10517,1.86291 z m -11.41805,-0.77482 c -1.7291,-0.38812 -5.91053,-1.02726 -8.53168,-1.30408 -1.68067,-0.1775 -2.52433,-0.59955 -7.27554,-3.63967 -3.805553,-2.43503 -7.585785,-6.94294 -10.285162,-12.265 -2.148082,-4.23513 -2.107094,-4.29319 1.531413,-2.16896 1.284784,0.75008 3.407534,1.95517 4.717221,2.67798 14.097968,7.78053 22.357288,13.77444 22.357288,16.225 0,1.02534 -0.0329,1.03155 -2.51354,0.47473 z m 0.22535,-4.55564 c -0.8947,-0.8348 -2.61101,-2.22851 -3.81402,-3.09714 -3.62906,-2.62037 -3.77652,-2.79194 -5.62554,-6.54532 -3.58944,-7.28634 -5.12636,-11.91008 -9.19468,-27.66179 -1.343363,-5.20123 -1.183275,-5.30628 2.190309,-1.43733 8.838471,10.13629 16.950201,24.05724 17.922551,30.75781 0.1795,1.23693 0.50121,3.13907 0.71491,4.22699 0.92981,4.73339 0.19747,5.98766 -2.19353,3.75678 z m 17.6369,-0.50929 c 0.002,-0.10914 1.04338,-1.37929 2.31511,-2.82255 4.609437,-5.23119 9.106807,-10.71777 9.798427,-11.95362 0.10903,-0.19482 2.33877,-1.41339 4.95497,-2.70794 2.61621,-1.29454 5.38706,-2.72711 6.15745,-3.1835 1.34806,-0.79859 2.17117,-1.04069 2.17117,-0.63858 0,0.99523 -4.87906,6.9009 -8.47632,10.25984 -6.18185,5.77229 -6.26479,5.83543 -10.89121,8.29224 -1.40859,0.74801 -3.168787,1.71834 -3.911537,2.15629 -1.31211,0.77364 -2.12392,1.00278 -2.11806,0.59782 z m -7.2428,-2.18281 c -4.32645,-13.03086 -4.32608,-13.03044 -5.91805,-6.76454 -0.62606,2.46413 -1.19584,4.53781 -1.26619,4.60816 -0.64953,0.64952 -1.20083,-3.75642 -1.36659,-10.92163 -0.18059,-7.80611 0.0931,-10.27086 2.02899,-18.27512 0.82677,-3.41836 1.78448,-7.49509 2.70379,-11.50937 0.5875,-2.56543 0.93046,-3.36055 1.2887,-2.98778 0.56772,0.59075 2.98879,8.84272 3.67116,12.51278 0.17587,0.94589 0.43843,2.3151 0.58347,3.04271 0.68905,3.45674 0.55581,12.63424 -0.3073,21.16666 -0.1472,1.45521 -0.38744,3.99885 -0.53386,5.65254 -0.26414,2.98325 -0.604,4.31929 -0.88412,3.47559 z m -20.9382,-4.91907 c -0.29104,-0.22238 -2.07698,-1.24988 -3.96875,-2.28332 -4.983379,-2.72235 -5.800225,-3.81324 -9.648759,-12.88584 -2.260093,-5.32797 -2.237613,-5.34386 2.240428,-1.58403 1.74625,1.46618 4.249663,3.4694 5.56314,4.45161 2.311431,1.72847 2.412571,1.84887 3.148701,3.74855 0.41831,1.0795 1.45701,3.43916 2.30822,5.2437 1.85573,3.93408 1.91691,4.50121 0.35702,3.30933 z m 23.32125,-4.28 c -0.13185,-0.21335 0.2163,-5.14454 0.6021,-8.52801 0.28707,-2.51768 1.11909,-4.32703 5.77915,-12.56771 5.261347,-9.30398 5.205797,-9.21075 5.558707,-9.32839 0.76176,-0.25392 0.13538,8.3988 -0.98175,13.56172 -0.89171,4.12108 -1.15918,4.73066 -3.003887,6.84579 -1.94695,2.23236 -5.15478,6.42008 -6.66312,8.69848 -1.06409,1.60736 -1.09374,1.63762 -1.2912,1.31812 z m -12.60562,-2.141 c 0,-0.45305 -3.1206,-6.78005 -4.6539,-9.43578 -0.79125,-1.37047 -1.54719,-2.77728 -1.67987,-3.12625 -0.76015,-1.99934 -1.49401,-15.52082 -0.84238,-15.52082 0.55279,0 5.10648,9.9593 7.53963,16.48977 0.70769,1.89941 0.68089,11.51871 -0.0328,11.75516 -0.1819,0.0603 -0.33073,-0.0127 -0.33073,-0.16208 z"/>
</g>
</svg>